<mxfile host="app.diagrams.net" agent="Mozilla/5.0 (Windows NT 10.0; Win64; x64) AppleWebKit/537.36 (KHTML, like Gecko) Chrome/135.0.0.0 Safari/537.36" version="26.2.10" pages="3">
  <diagram name="Contact Us" id="Lrrs5YaSgaaOT07pxVCJ">
    <mxGraphModel dx="1428" dy="823" grid="1" gridSize="10" guides="1" tooltips="1" connect="1" arrows="1" fold="1" page="1" pageScale="1" pageWidth="827" pageHeight="1169" math="0" shadow="0">
      <root>
        <mxCell id="0" />
        <mxCell id="1" parent="0" />
        <mxCell id="SQtIZXjAyS8eLif3JnIM-3" value="" style="rounded=0;whiteSpace=wrap;html=1;fillColor=#60a917;fontColor=#ffffff;strokeColor=#2D7600;" parent="1" vertex="1">
          <mxGeometry x="120" y="10" width="600" height="120" as="geometry" />
        </mxCell>
        <mxCell id="SQtIZXjAyS8eLif3JnIM-4" value="" style="verticalLabelPosition=bottom;shadow=0;dashed=0;align=center;html=1;verticalAlign=top;strokeWidth=1;shape=mxgraph.mockup.graphics.simpleIcon;strokeColor=#999999;" parent="1" vertex="1">
          <mxGeometry x="140" y="30" width="80" height="80" as="geometry" />
        </mxCell>
        <mxCell id="SQtIZXjAyS8eLif3JnIM-5" value="" style="swimlane;shape=mxgraph.bootstrap.anchor;strokeColor=#999999;fillColor=#ffffff;fontColor=#666666;childLayout=stackLayout;horizontal=0;startSize=0;horizontalStack=1;resizeParent=1;resizeParentMax=0;resizeLast=0;collapsible=0;marginBottom=0;whiteSpace=wrap;html=1;" parent="1" vertex="1">
          <mxGeometry x="280" y="60" width="340" height="20" as="geometry" />
        </mxCell>
        <mxCell id="SQtIZXjAyS8eLif3JnIM-6" value="Home" style="text;strokeColor=inherit;align=center;verticalAlign=middle;spacingLeft=10;spacingRight=10;overflow=hidden;points=[[0,0.5],[1,0.5]];portConstraint=eastwest;rotatable=0;whiteSpace=wrap;html=1;fillColor=inherit;fontColor=inherit;fontSize=17;" parent="SQtIZXjAyS8eLif3JnIM-5" vertex="1">
          <mxGeometry width="70" height="20" as="geometry" />
        </mxCell>
        <mxCell id="SQtIZXjAyS8eLif3JnIM-8" value="About Us" style="text;strokeColor=inherit;align=center;verticalAlign=middle;spacingLeft=10;spacingRight=10;overflow=hidden;points=[[0,0.5],[1,0.5]];portConstraint=eastwest;rotatable=0;whiteSpace=wrap;html=1;fillColor=inherit;fontColor=inherit;fontSize=17;" parent="SQtIZXjAyS8eLif3JnIM-5" vertex="1">
          <mxGeometry x="70" width="90" height="20" as="geometry" />
        </mxCell>
        <mxCell id="SQtIZXjAyS8eLif3JnIM-9" value="Trips" style="text;strokeColor=inherit;align=center;verticalAlign=middle;spacingLeft=10;spacingRight=10;overflow=hidden;points=[[0,0.5],[1,0.5]];portConstraint=eastwest;rotatable=0;whiteSpace=wrap;html=1;fillColor=inherit;fontColor=inherit;fontSize=17;" parent="SQtIZXjAyS8eLif3JnIM-5" vertex="1">
          <mxGeometry x="160" width="90" height="20" as="geometry" />
        </mxCell>
        <mxCell id="SQtIZXjAyS8eLif3JnIM-10" value="&lt;font style=&quot;font-size: 13px;&quot;&gt;Contact Us&lt;/font&gt;" style="text;strokeColor=inherit;align=center;verticalAlign=middle;spacingLeft=10;spacingRight=10;overflow=hidden;points=[[0,0.5],[1,0.5]];portConstraint=eastwest;rotatable=0;whiteSpace=wrap;html=1;fillColor=inherit;fontColor=inherit;fontSize=17;" parent="SQtIZXjAyS8eLif3JnIM-5" vertex="1">
          <mxGeometry x="250" width="90" height="20" as="geometry" />
        </mxCell>
        <mxCell id="SQtIZXjAyS8eLif3JnIM-13" value="" style="rounded=0;whiteSpace=wrap;html=1;fillColor=#60a917;fontColor=#ffffff;strokeColor=#2D7600;" parent="1" vertex="1">
          <mxGeometry x="10" y="1060" width="810" height="100" as="geometry" />
        </mxCell>
        <mxCell id="SQtIZXjAyS8eLif3JnIM-14" value="" style="verticalLabelPosition=bottom;shadow=0;dashed=0;align=center;html=1;verticalAlign=top;strokeWidth=1;shape=mxgraph.mockup.graphics.simpleIcon;strokeColor=#999999;" parent="1" vertex="1">
          <mxGeometry x="630" y="1085" width="50" height="50" as="geometry" />
        </mxCell>
        <mxCell id="SQtIZXjAyS8eLif3JnIM-16" value="" style="verticalLabelPosition=bottom;shadow=0;dashed=0;align=center;html=1;verticalAlign=top;strokeWidth=1;shape=mxgraph.mockup.graphics.simpleIcon;strokeColor=#999999;" parent="1" vertex="1">
          <mxGeometry x="690" y="1085" width="50" height="50" as="geometry" />
        </mxCell>
        <mxCell id="SQtIZXjAyS8eLif3JnIM-17" value="" style="verticalLabelPosition=bottom;shadow=0;dashed=0;align=center;html=1;verticalAlign=top;strokeWidth=1;shape=mxgraph.mockup.graphics.simpleIcon;strokeColor=#999999;" parent="1" vertex="1">
          <mxGeometry x="750" y="1085" width="50" height="50" as="geometry" />
        </mxCell>
        <mxCell id="SQtIZXjAyS8eLif3JnIM-18" value="Footer content" style="text;html=1;align=center;verticalAlign=middle;whiteSpace=wrap;rounded=0;fontSize=18;" parent="1" vertex="1">
          <mxGeometry x="50" y="1095" width="550" height="30" as="geometry" />
        </mxCell>
        <mxCell id="SQtIZXjAyS8eLif3JnIM-19" value="" style="strokeWidth=1;shadow=0;dashed=0;align=center;html=1;shape=mxgraph.mockup.forms.rrect;rSize=0;strokeColor=#999999;fillColor=#ffffff;" parent="1" vertex="1">
          <mxGeometry x="20" y="220" width="400" height="410" as="geometry" />
        </mxCell>
        <mxCell id="SQtIZXjAyS8eLif3JnIM-20" value="Send Us a Message" style="strokeWidth=1;shadow=0;dashed=0;align=center;html=1;shape=mxgraph.mockup.forms.anchor;fontSize=21;fontColor=#666666;align=left;resizeWidth=1;spacingLeft=0;" parent="SQtIZXjAyS8eLif3JnIM-19" vertex="1">
          <mxGeometry width="340" height="30" relative="1" as="geometry">
            <mxPoint x="10" y="10" as="offset" />
          </mxGeometry>
        </mxCell>
        <mxCell id="SQtIZXjAyS8eLif3JnIM-22" value="Name" style="strokeWidth=1;shadow=0;dashed=0;align=center;html=1;shape=mxgraph.mockup.forms.anchor;fontSize=14;fontColor=#666666;align=left;resizeWidth=1;spacingLeft=0;" parent="SQtIZXjAyS8eLif3JnIM-19" vertex="1">
          <mxGeometry width="200" height="20" relative="1" as="geometry">
            <mxPoint x="10" y="50" as="offset" />
          </mxGeometry>
        </mxCell>
        <mxCell id="SQtIZXjAyS8eLif3JnIM-23" value="johndoe" style="strokeWidth=1;shadow=0;dashed=0;align=center;html=1;shape=mxgraph.mockup.forms.rrect;rSize=0;strokeColor=#999999;fontColor=#666666;align=left;spacingLeft=5;resizeWidth=1;" parent="SQtIZXjAyS8eLif3JnIM-19" vertex="1">
          <mxGeometry width="300" height="25" relative="1" as="geometry">
            <mxPoint x="10" y="70" as="offset" />
          </mxGeometry>
        </mxCell>
        <mxCell id="SQtIZXjAyS8eLif3JnIM-24" value="E-mail" style="strokeWidth=1;shadow=0;dashed=0;align=center;html=1;shape=mxgraph.mockup.forms.anchor;fontSize=14;fontColor=#666666;align=left;resizeWidth=1;spacingLeft=0;" parent="SQtIZXjAyS8eLif3JnIM-19" vertex="1">
          <mxGeometry width="200" height="20" relative="1" as="geometry">
            <mxPoint x="10" y="100" as="offset" />
          </mxGeometry>
        </mxCell>
        <mxCell id="SQtIZXjAyS8eLif3JnIM-25" value="johndoe@gmail.com" style="strokeWidth=1;shadow=0;dashed=0;align=center;html=1;shape=mxgraph.mockup.forms.rrect;rSize=0;strokeColor=#999999;fontColor=#666666;align=left;spacingLeft=5;resizeWidth=1;" parent="SQtIZXjAyS8eLif3JnIM-19" vertex="1">
          <mxGeometry width="300" height="25" relative="1" as="geometry">
            <mxPoint x="10" y="130" as="offset" />
          </mxGeometry>
        </mxCell>
        <mxCell id="SQtIZXjAyS8eLif3JnIM-30" value="I&#39;m ready!" style="strokeWidth=1;shadow=0;dashed=0;align=center;html=1;shape=mxgraph.mockup.forms.rrect;rSize=5;strokeColor=none;fontColor=#ffffff;fillColor=#66bbff;fontSize=16;fontStyle=1;" parent="SQtIZXjAyS8eLif3JnIM-19" vertex="1">
          <mxGeometry y="1" width="380" height="42" relative="1" as="geometry">
            <mxPoint x="10" y="-51" as="offset" />
          </mxGeometry>
        </mxCell>
        <mxCell id="SQtIZXjAyS8eLif3JnIM-62" value="" style="edgeStyle=orthogonalEdgeStyle;rounded=0;orthogonalLoop=1;jettySize=auto;html=1;" parent="SQtIZXjAyS8eLif3JnIM-19" target="SQtIZXjAyS8eLif3JnIM-61" edge="1">
          <mxGeometry relative="1" as="geometry">
            <mxPoint x="186" y="240" as="sourcePoint" />
          </mxGeometry>
        </mxCell>
        <mxCell id="SQtIZXjAyS8eLif3JnIM-61" value="Reason for reaching us:" style="strokeWidth=1;shadow=0;dashed=0;align=center;html=1;shape=mxgraph.mockup.forms.anchor;fontSize=21;fontColor=#666666;align=left;resizeWidth=1;spacingLeft=0;" parent="SQtIZXjAyS8eLif3JnIM-19" vertex="1">
          <mxGeometry x="10" y="160" width="340" height="30" as="geometry" />
        </mxCell>
        <mxCell id="SQtIZXjAyS8eLif3JnIM-69" value="" style="swimlane;strokeColor=#999999;swimlaneFillColor=#FFFFFF;fillColor=#ffffff;fontColor=#666666;fontStyle=0;childLayout=stackLayout;horizontal=1;startSize=0;horizontalStack=0;resizeParent=1;resizeParentMax=0;resizeLast=0;collapsible=0;marginBottom=0;whiteSpace=wrap;html=1;" parent="SQtIZXjAyS8eLif3JnIM-19" vertex="1">
          <mxGeometry x="10" y="190" width="240" height="90" as="geometry" />
        </mxCell>
        <mxCell id="SQtIZXjAyS8eLif3JnIM-70" value="General Inquirity" style="text;strokeColor=none;align=left;verticalAlign=middle;spacingLeft=27;spacingRight=10;overflow=hidden;points=[[0,0.5],[1,0.5]];portConstraint=eastwest;rotatable=0;whiteSpace=wrap;html=1;fillColor=none;fontColor=inherit;fontSize=17;" parent="SQtIZXjAyS8eLif3JnIM-69" vertex="1">
          <mxGeometry width="240" height="30" as="geometry" />
        </mxCell>
        <mxCell id="SQtIZXjAyS8eLif3JnIM-71" value="" style="shape=ellipse;resizable=0;fillColor=#EEEEEE;strokeColor=#999999;gradientColor=#cccccc;html=1;" parent="SQtIZXjAyS8eLif3JnIM-70" vertex="1">
          <mxGeometry y="0.5" width="15" height="15" relative="1" as="geometry">
            <mxPoint x="8" y="-7.5" as="offset" />
          </mxGeometry>
        </mxCell>
        <mxCell id="SQtIZXjAyS8eLif3JnIM-72" value="Reservation Question" style="text;strokeColor=none;align=left;verticalAlign=middle;spacingLeft=27;spacingRight=10;overflow=hidden;points=[[0,0.5],[1,0.5]];portConstraint=eastwest;rotatable=0;whiteSpace=wrap;html=1;rSize=5;fillColor=none;fontColor=inherit;fontSize=17;" parent="SQtIZXjAyS8eLif3JnIM-69" vertex="1">
          <mxGeometry y="30" width="240" height="30" as="geometry" />
        </mxCell>
        <mxCell id="SQtIZXjAyS8eLif3JnIM-73" value="" style="shape=ellipse;resizable=0;fillColor=#EEEEEE;strokeColor=#999999;gradientColor=#cccccc;html=1;" parent="SQtIZXjAyS8eLif3JnIM-72" vertex="1">
          <mxGeometry y="0.5" width="15" height="15" relative="1" as="geometry">
            <mxPoint x="8" y="-7.5" as="offset" />
          </mxGeometry>
        </mxCell>
        <mxCell id="SQtIZXjAyS8eLif3JnIM-74" value="Website Question" style="text;strokeColor=none;align=left;verticalAlign=middle;spacingLeft=27;spacingRight=10;overflow=hidden;points=[[0,0.5],[1,0.5]];portConstraint=eastwest;rotatable=0;whiteSpace=wrap;html=1;rSize=5;fillColor=none;fontColor=#008CFF;fontSize=17;" parent="SQtIZXjAyS8eLif3JnIM-69" vertex="1">
          <mxGeometry y="60" width="240" height="30" as="geometry" />
        </mxCell>
        <mxCell id="SQtIZXjAyS8eLif3JnIM-75" value="" style="shape=ellipse;resizable=0;fillColor=#AAAAAA;gradientColor=#666666;strokeColor=#444444;html=1;" parent="SQtIZXjAyS8eLif3JnIM-74" vertex="1">
          <mxGeometry y="0.5" width="15" height="15" relative="1" as="geometry">
            <mxPoint x="8" y="-7.5" as="offset" />
          </mxGeometry>
        </mxCell>
        <mxCell id="SQtIZXjAyS8eLif3JnIM-76" value="" style="shape=ellipse;resizable=0;fillColor=#444444;strokeColor=none;html=1;" parent="SQtIZXjAyS8eLif3JnIM-75" vertex="1">
          <mxGeometry x="0.2" y="0.2" width="9" height="9" relative="1" as="geometry" />
        </mxCell>
        <mxCell id="SQtIZXjAyS8eLif3JnIM-79" value="&lt;font style=&quot;font-size: 18px;&quot;&gt;Subscribe for monthly newsletter:&lt;/font&gt;" style="strokeWidth=1;shadow=0;dashed=0;align=center;html=1;shape=mxgraph.mockup.forms.anchor;fontSize=21;fontColor=#666666;align=left;resizeWidth=1;spacingLeft=0;" parent="SQtIZXjAyS8eLif3JnIM-19" vertex="1">
          <mxGeometry x="10" y="290" width="340" height="30" as="geometry" />
        </mxCell>
        <mxCell id="SQtIZXjAyS8eLif3JnIM-80" value="" style="html=1;shadow=0;dashed=0;shape=mxgraph.bootstrap.checkbox2;labelPosition=right;verticalLabelPosition=middle;align=left;verticalAlign=middle;gradientColor=#DEDEDE;fillColor=#EDEDED;checked=0;spacing=5;checkedFill=#0085FC;checkedStroke=#ffffff;sketch=0;" parent="SQtIZXjAyS8eLif3JnIM-19" vertex="1">
          <mxGeometry x="10" y="320" width="20" height="20" as="geometry" />
        </mxCell>
        <mxCell id="SQtIZXjAyS8eLif3JnIM-31" value="Contact Us" style="text;html=1;align=center;verticalAlign=middle;whiteSpace=wrap;rounded=0;fontSize=32;" parent="1" vertex="1">
          <mxGeometry x="145" y="150" width="550" height="30" as="geometry" />
        </mxCell>
        <mxCell id="SQtIZXjAyS8eLif3JnIM-32" value="" style="verticalLabelPosition=bottom;shadow=0;dashed=0;align=center;html=1;verticalAlign=top;strokeWidth=1;shape=mxgraph.mockup.graphics.simpleIcon;strokeColor=#999999;" parent="1" vertex="1">
          <mxGeometry x="440" y="440" width="370" height="190" as="geometry" />
        </mxCell>
        <mxCell id="SQtIZXjAyS8eLif3JnIM-33" value="" style="strokeWidth=1;shadow=0;dashed=0;align=center;html=1;shape=mxgraph.mockup.forms.rrect;rSize=0;strokeColor=#999999;fillColor=#ffffff;" parent="1" vertex="1">
          <mxGeometry x="440" y="220" width="370" height="210" as="geometry" />
        </mxCell>
        <mxCell id="SQtIZXjAyS8eLif3JnIM-34" value="Contact Info" style="strokeWidth=1;shadow=0;dashed=0;align=center;html=1;shape=mxgraph.mockup.forms.anchor;fontSize=30;fontColor=#666666;align=left;resizeWidth=1;spacingLeft=0;" parent="SQtIZXjAyS8eLif3JnIM-33" vertex="1">
          <mxGeometry width="350" height="40" relative="1" as="geometry">
            <mxPoint x="10" y="10" as="offset" />
          </mxGeometry>
        </mxCell>
        <mxCell id="SQtIZXjAyS8eLif3JnIM-36" value="Jr. Ica 917 Jesus, Cajamarca" style="strokeWidth=1;shadow=0;dashed=0;align=center;html=1;shape=mxgraph.mockup.forms.anchor;fontSize=16;fontColor=#666666;align=left;resizeWidth=1;spacingLeft=0;" parent="SQtIZXjAyS8eLif3JnIM-33" vertex="1">
          <mxGeometry width="240" height="20" relative="1" as="geometry">
            <mxPoint x="10" y="65" as="offset" />
          </mxGeometry>
        </mxCell>
        <mxCell id="SQtIZXjAyS8eLif3JnIM-38" value="" style="strokeWidth=1;shadow=0;dashed=0;align=center;html=1;shape=mxgraph.mockup.forms.anchor;fontSize=12;fontColor=#666666;align=left;resizeWidth=1;spacingLeft=0;" parent="SQtIZXjAyS8eLif3JnIM-33" vertex="1">
          <mxGeometry width="185" height="20" relative="1" as="geometry">
            <mxPoint x="10" y="130" as="offset" />
          </mxGeometry>
        </mxCell>
        <mxCell id="SQtIZXjAyS8eLif3JnIM-83" value="972 098 339&amp;nbsp; /&amp;nbsp; 976 136 262" style="strokeWidth=1;shadow=0;dashed=0;align=center;html=1;shape=mxgraph.mockup.forms.anchor;fontSize=16;fontColor=#666666;align=left;resizeWidth=1;spacingLeft=0;" parent="SQtIZXjAyS8eLif3JnIM-33" vertex="1">
          <mxGeometry x="10" y="100" width="240" height="20" as="geometry" />
        </mxCell>
        <mxCell id="SQtIZXjAyS8eLif3JnIM-84" value="prom23hugomarcelo.sa@gmail.com" style="strokeWidth=1;shadow=0;dashed=0;align=center;html=1;shape=mxgraph.mockup.forms.anchor;fontSize=16;fontColor=#666666;align=left;resizeWidth=1;spacingLeft=0;" parent="SQtIZXjAyS8eLif3JnIM-33" vertex="1">
          <mxGeometry x="10" y="130" width="270" height="20" as="geometry" />
        </mxCell>
        <mxCell id="SQtIZXjAyS8eLif3JnIM-47" value="Map" style="text;html=1;align=center;verticalAlign=middle;whiteSpace=wrap;rounded=0;fontSize=32;" parent="1" vertex="1">
          <mxGeometry x="515" y="510" width="220" height="30" as="geometry" />
        </mxCell>
        <mxCell id="SQtIZXjAyS8eLif3JnIM-105" value="" style="verticalLabelPosition=bottom;shadow=0;dashed=0;align=center;html=1;verticalAlign=top;strokeWidth=1;shape=mxgraph.mockup.graphics.simpleIcon;strokeColor=#999999;" parent="1" vertex="1">
          <mxGeometry x="40" y="680" width="130" height="120" as="geometry" />
        </mxCell>
        <mxCell id="SQtIZXjAyS8eLif3JnIM-106" value="" style="verticalLabelPosition=bottom;shadow=0;dashed=0;align=center;html=1;verticalAlign=top;strokeWidth=1;shape=mxgraph.mockup.graphics.simpleIcon;strokeColor=#999999;" parent="1" vertex="1">
          <mxGeometry x="670" y="680" width="130" height="120" as="geometry" />
        </mxCell>
        <mxCell id="SQtIZXjAyS8eLif3JnIM-107" value="" style="verticalLabelPosition=bottom;shadow=0;dashed=0;align=center;html=1;verticalAlign=top;strokeWidth=1;shape=mxgraph.mockup.graphics.simpleIcon;strokeColor=#999999;" parent="1" vertex="1">
          <mxGeometry x="355" y="680" width="130" height="120" as="geometry" />
        </mxCell>
        <mxCell id="SQtIZXjAyS8eLif3JnIM-108" value="CEO" style="strokeWidth=1;shadow=0;dashed=0;align=right;html=1;shape=mxgraph.mockup.forms.anchor;fontSize=14;fontColor=#666666;align=left;resizeWidth=1;spacingLeft=0;" parent="1" vertex="1">
          <mxGeometry x="40" y="820" width="130" height="20" as="geometry" />
        </mxCell>
        <mxCell id="SQtIZXjAyS8eLif3JnIM-109" value="VP Operations" style="strokeWidth=1;shadow=0;dashed=0;align=center;html=1;shape=mxgraph.mockup.forms.anchor;fontSize=14;fontColor=#666666;align=left;resizeWidth=1;spacingLeft=0;" parent="1" vertex="1">
          <mxGeometry x="670" y="820" width="130" height="20" as="geometry" />
        </mxCell>
        <mxCell id="SQtIZXjAyS8eLif3JnIM-110" value="River Guide" style="strokeWidth=1;shadow=0;dashed=0;align=center;html=1;shape=mxgraph.mockup.forms.anchor;fontSize=14;fontColor=#666666;align=left;resizeWidth=1;spacingLeft=0;" parent="1" vertex="1">
          <mxGeometry x="355" y="820" width="130" height="20" as="geometry" />
        </mxCell>
      </root>
    </mxGraphModel>
  </diagram>
  <diagram id="_Jga1bPGUFwx-qbfd2bx" name="Home">
    <mxGraphModel dx="1428" dy="823" grid="1" gridSize="10" guides="1" tooltips="1" connect="1" arrows="1" fold="1" page="1" pageScale="1" pageWidth="827" pageHeight="1169" math="0" shadow="0">
      <root>
        <mxCell id="0" />
        <mxCell id="1" parent="0" />
        <mxCell id="hIjkYLytyyZ2hRDvCaDV-2" value="" style="rounded=0;whiteSpace=wrap;html=1;" parent="1" vertex="1">
          <mxGeometry x="210" y="1290" width="420" height="270" as="geometry" />
        </mxCell>
        <mxCell id="_3MZA-FHrIc1hK6y-JxS-20" value="" style="rounded=0;whiteSpace=wrap;html=1;" parent="1" vertex="1">
          <mxGeometry x="294" y="890" width="240" height="380" as="geometry" />
        </mxCell>
        <mxCell id="_3MZA-FHrIc1hK6y-JxS-19" value="" style="rounded=0;whiteSpace=wrap;html=1;" parent="1" vertex="1">
          <mxGeometry x="294" y="490" width="240" height="380" as="geometry" />
        </mxCell>
        <mxCell id="_3MZA-FHrIc1hK6y-JxS-2" value="" style="edgeStyle=orthogonalEdgeStyle;rounded=0;orthogonalLoop=1;jettySize=auto;html=1;" parent="1" source="y4Xh0i6NQwcZz5mKpZ11-1" target="_3MZA-FHrIc1hK6y-JxS-1" edge="1">
          <mxGeometry relative="1" as="geometry" />
        </mxCell>
        <mxCell id="y4Xh0i6NQwcZz5mKpZ11-1" value="" style="rounded=0;whiteSpace=wrap;html=1;fillColor=#60a917;fontColor=#ffffff;strokeColor=#2D7600;" parent="1" vertex="1">
          <mxGeometry x="120" y="10" width="600" height="120" as="geometry" />
        </mxCell>
        <mxCell id="y4Xh0i6NQwcZz5mKpZ11-2" value="" style="verticalLabelPosition=bottom;shadow=0;dashed=0;align=center;html=1;verticalAlign=top;strokeWidth=1;shape=mxgraph.mockup.graphics.simpleIcon;strokeColor=#999999;" parent="1" vertex="1">
          <mxGeometry x="140" y="30" width="80" height="80" as="geometry" />
        </mxCell>
        <mxCell id="y4Xh0i6NQwcZz5mKpZ11-3" value="" style="swimlane;shape=mxgraph.bootstrap.anchor;strokeColor=#999999;fillColor=#ffffff;fontColor=#666666;childLayout=stackLayout;horizontal=0;startSize=0;horizontalStack=1;resizeParent=1;resizeParentMax=0;resizeLast=0;collapsible=0;marginBottom=0;whiteSpace=wrap;html=1;" parent="1" vertex="1">
          <mxGeometry x="280" y="60" width="340" height="20" as="geometry" />
        </mxCell>
        <mxCell id="y4Xh0i6NQwcZz5mKpZ11-4" value="Home" style="text;strokeColor=inherit;align=center;verticalAlign=middle;spacingLeft=10;spacingRight=10;overflow=hidden;points=[[0,0.5],[1,0.5]];portConstraint=eastwest;rotatable=0;whiteSpace=wrap;html=1;fillColor=inherit;fontColor=inherit;fontSize=17;" parent="y4Xh0i6NQwcZz5mKpZ11-3" vertex="1">
          <mxGeometry width="70" height="20" as="geometry" />
        </mxCell>
        <mxCell id="y4Xh0i6NQwcZz5mKpZ11-5" value="About Us" style="text;strokeColor=inherit;align=center;verticalAlign=middle;spacingLeft=10;spacingRight=10;overflow=hidden;points=[[0,0.5],[1,0.5]];portConstraint=eastwest;rotatable=0;whiteSpace=wrap;html=1;fillColor=inherit;fontColor=inherit;fontSize=17;" parent="y4Xh0i6NQwcZz5mKpZ11-3" vertex="1">
          <mxGeometry x="70" width="90" height="20" as="geometry" />
        </mxCell>
        <mxCell id="y4Xh0i6NQwcZz5mKpZ11-6" value="Trips" style="text;strokeColor=inherit;align=center;verticalAlign=middle;spacingLeft=10;spacingRight=10;overflow=hidden;points=[[0,0.5],[1,0.5]];portConstraint=eastwest;rotatable=0;whiteSpace=wrap;html=1;fillColor=inherit;fontColor=inherit;fontSize=17;" parent="y4Xh0i6NQwcZz5mKpZ11-3" vertex="1">
          <mxGeometry x="160" width="90" height="20" as="geometry" />
        </mxCell>
        <mxCell id="y4Xh0i6NQwcZz5mKpZ11-7" value="&lt;font style=&quot;font-size: 13px;&quot;&gt;Contact Us&lt;/font&gt;" style="text;strokeColor=inherit;align=center;verticalAlign=middle;spacingLeft=10;spacingRight=10;overflow=hidden;points=[[0,0.5],[1,0.5]];portConstraint=eastwest;rotatable=0;whiteSpace=wrap;html=1;fillColor=inherit;fontColor=inherit;fontSize=17;" parent="y4Xh0i6NQwcZz5mKpZ11-3" vertex="1">
          <mxGeometry x="250" width="90" height="20" as="geometry" />
        </mxCell>
        <mxCell id="MOcgg1K4ESOzGloLZr19-1" value="" style="rounded=0;whiteSpace=wrap;html=1;fillColor=#60a917;fontColor=#ffffff;strokeColor=#2D7600;" parent="1" vertex="1">
          <mxGeometry x="9" y="1590" width="810" height="100" as="geometry" />
        </mxCell>
        <mxCell id="MOcgg1K4ESOzGloLZr19-2" value="" style="verticalLabelPosition=bottom;shadow=0;dashed=0;align=center;html=1;verticalAlign=top;strokeWidth=1;shape=mxgraph.mockup.graphics.simpleIcon;strokeColor=#999999;" parent="1" vertex="1">
          <mxGeometry x="629" y="1615" width="50" height="50" as="geometry" />
        </mxCell>
        <mxCell id="MOcgg1K4ESOzGloLZr19-3" value="" style="verticalLabelPosition=bottom;shadow=0;dashed=0;align=center;html=1;verticalAlign=top;strokeWidth=1;shape=mxgraph.mockup.graphics.simpleIcon;strokeColor=#999999;" parent="1" vertex="1">
          <mxGeometry x="689" y="1615" width="50" height="50" as="geometry" />
        </mxCell>
        <mxCell id="MOcgg1K4ESOzGloLZr19-4" value="" style="verticalLabelPosition=bottom;shadow=0;dashed=0;align=center;html=1;verticalAlign=top;strokeWidth=1;shape=mxgraph.mockup.graphics.simpleIcon;strokeColor=#999999;" parent="1" vertex="1">
          <mxGeometry x="749" y="1615" width="50" height="50" as="geometry" />
        </mxCell>
        <mxCell id="MOcgg1K4ESOzGloLZr19-5" value="Footer content" style="text;html=1;align=center;verticalAlign=middle;whiteSpace=wrap;rounded=0;fontSize=18;" parent="1" vertex="1">
          <mxGeometry x="49" y="1625" width="550" height="30" as="geometry" />
        </mxCell>
        <mxCell id="_3MZA-FHrIc1hK6y-JxS-1" value="" style="verticalLabelPosition=bottom;shadow=0;dashed=0;align=center;html=1;verticalAlign=top;strokeWidth=1;shape=mxgraph.mockup.graphics.simpleIcon;strokeColor=#999999;" parent="1" vertex="1">
          <mxGeometry x="10" y="150" width="810" height="250" as="geometry" />
        </mxCell>
        <mxCell id="_3MZA-FHrIc1hK6y-JxS-3" value="Hero image" style="text;html=1;align=center;verticalAlign=middle;whiteSpace=wrap;rounded=0;fontSize=28;" parent="1" vertex="1">
          <mxGeometry y="350" width="330" height="50" as="geometry" />
        </mxCell>
        <mxCell id="_3MZA-FHrIc1hK6y-JxS-4" value="Whitewater Rafting&lt;div&gt;Discover your Passion&lt;/div&gt;" style="text;html=1;align=center;verticalAlign=middle;whiteSpace=wrap;rounded=0;fontSize=28;" parent="1" vertex="1">
          <mxGeometry x="270" y="150" width="300" height="140" as="geometry" />
        </mxCell>
        <mxCell id="_3MZA-FHrIc1hK6y-JxS-5" value="&lt;font style=&quot;font-size: 15px;&quot;&gt;Great trips, new roads, and your safety always first.&lt;/font&gt;" style="text;html=1;align=center;verticalAlign=middle;whiteSpace=wrap;rounded=0;fontSize=18;spacing=2;spacingTop=2;horizontal=1;fontStyle=0" parent="1" vertex="1">
          <mxGeometry x="210" y="270" width="420" height="60" as="geometry" />
        </mxCell>
        <mxCell id="_3MZA-FHrIc1hK6y-JxS-7" value="" style="verticalLabelPosition=bottom;shadow=0;dashed=0;align=center;html=1;verticalAlign=top;strokeWidth=1;shape=mxgraph.mockup.graphics.simpleIcon;strokeColor=#999999;fontSize=9;" parent="1" vertex="1">
          <mxGeometry x="314" y="510" width="200" height="180" as="geometry" />
        </mxCell>
        <mxCell id="_3MZA-FHrIc1hK6y-JxS-8" value="Plan your trip!" style="rounded=1;fillColor=#0057D8;strokeColor=none;html=1;whiteSpace=wrap;fontColor=#ffffff;align=center;verticalAlign=middle;fontStyle=0;fontSize=12;sketch=0;" parent="1" vertex="1">
          <mxGeometry x="371" y="350" width="86" height="33" as="geometry" />
        </mxCell>
        <mxCell id="_3MZA-FHrIc1hK6y-JxS-11" value="" style="verticalLabelPosition=bottom;shadow=0;dashed=0;align=center;html=1;verticalAlign=top;strokeWidth=1;shape=mxgraph.mockup.graphics.simpleIcon;strokeColor=#999999;" parent="1" vertex="1">
          <mxGeometry x="314" y="910" width="200" height="180" as="geometry" />
        </mxCell>
        <mxCell id="_3MZA-FHrIc1hK6y-JxS-18" value="Ride the Rapids - Now on Sale!" style="text;html=1;align=center;verticalAlign=middle;whiteSpace=wrap;rounded=0;fontSize=28;" parent="1" vertex="1">
          <mxGeometry x="200" y="420" width="440" height="50" as="geometry" />
        </mxCell>
        <mxCell id="_3MZA-FHrIc1hK6y-JxS-21" value="Urubamba River img" style="text;html=1;align=center;verticalAlign=middle;whiteSpace=wrap;rounded=0;fontSize=28;" parent="1" vertex="1">
          <mxGeometry x="334" y="550" width="160" height="90" as="geometry" />
        </mxCell>
        <mxCell id="_3MZA-FHrIc1hK6y-JxS-22" value="Marañon River img" style="text;html=1;align=center;verticalAlign=middle;whiteSpace=wrap;rounded=0;fontSize=28;" parent="1" vertex="1">
          <mxGeometry x="334" y="950" width="160" height="90" as="geometry" />
        </mxCell>
        <mxCell id="_3MZA-FHrIc1hK6y-JxS-24" value="Sail through the sacred waters of the Sacred Valley, surrounded by breathtaking landscapes. Perfect for connecting with nature and Andean culture.&lt;br data-end=&quot;297&quot; data-start=&quot;294&quot;&gt;&lt;br&gt;&lt;strong data-end=&quot;336&quot; data-start=&quot;297&quot;&gt;Regular price: S/150 | Today: S/120&lt;/strong&gt;" style="text;html=1;align=center;verticalAlign=middle;whiteSpace=wrap;rounded=0;fontSize=16;" parent="1" vertex="1">
          <mxGeometry x="294" y="700" width="240" height="170" as="geometry" />
        </mxCell>
        <mxCell id="_3MZA-FHrIc1hK6y-JxS-25" value="Experience the thrill of riding one of the Amazon’s most powerful rivers. Rapids, epic views, and an unforgettable journey await.&lt;br data-end=&quot;510&quot; data-start=&quot;507&quot;&gt;&lt;br&gt;&lt;strong data-end=&quot;549&quot; data-start=&quot;510&quot;&gt;Regular price: S/180 | Today: S/140&lt;/strong&gt;" style="text;html=1;align=center;verticalAlign=middle;whiteSpace=wrap;rounded=0;fontSize=16;" parent="1" vertex="1">
          <mxGeometry x="294" y="1100" width="240" height="170" as="geometry" />
        </mxCell>
        <mxCell id="_iO6705vRSxkNj4VBnm8-1" value="johndoe" style="strokeWidth=1;shadow=0;dashed=0;align=center;html=1;shape=mxgraph.mockup.forms.rrect;rSize=0;strokeColor=#999999;fontColor=#666666;align=left;spacingLeft=5;resizeWidth=1;" parent="1" vertex="1">
          <mxGeometry x="240" y="1400" width="350" height="25" as="geometry" />
        </mxCell>
        <mxCell id="wWegTMo6esf96zOaNSdU-3" value="Name" style="strokeWidth=1;shadow=0;dashed=0;align=center;html=1;shape=mxgraph.mockup.forms.anchor;fontSize=14;fontColor=#666666;align=left;resizeWidth=1;spacingLeft=0;" parent="1" vertex="1">
          <mxGeometry x="240" y="1370" width="200" height="20" as="geometry" />
        </mxCell>
        <mxCell id="wWegTMo6esf96zOaNSdU-4" value="Join to our Adventure!" style="text;html=1;align=center;verticalAlign=middle;whiteSpace=wrap;rounded=0;fontSize=28;" parent="1" vertex="1">
          <mxGeometry x="250" y="1300" width="340" height="50" as="geometry" />
        </mxCell>
        <mxCell id="wWegTMo6esf96zOaNSdU-5" value="Email" style="strokeWidth=1;shadow=0;dashed=0;align=center;html=1;shape=mxgraph.mockup.forms.anchor;fontSize=14;fontColor=#666666;align=left;resizeWidth=1;spacingLeft=0;" parent="1" vertex="1">
          <mxGeometry x="240" y="1440" width="200" height="20" as="geometry" />
        </mxCell>
        <mxCell id="wWegTMo6esf96zOaNSdU-6" value="johndoe@gmail.com" style="strokeWidth=1;shadow=0;dashed=0;align=center;html=1;shape=mxgraph.mockup.forms.rrect;rSize=0;strokeColor=#999999;fontColor=#666666;align=left;spacingLeft=5;resizeWidth=1;" parent="1" vertex="1">
          <mxGeometry x="240" y="1470" width="350" height="25" as="geometry" />
        </mxCell>
        <mxCell id="b0_9PmOwhBycNySjA93H-1" value="I&#39;m ready!" style="strokeWidth=1;shadow=0;dashed=0;align=center;html=1;shape=mxgraph.mockup.forms.rrect;rSize=5;strokeColor=none;fontColor=#ffffff;fillColor=#66bbff;fontSize=16;fontStyle=1;" parent="1" vertex="1">
          <mxGeometry x="250" y="1510" width="330" height="42" as="geometry" />
        </mxCell>
      </root>
    </mxGraphModel>
  </diagram>
  <diagram name="Trips" id="GdrFkexuMgLysDgBLOn1">
    <mxGraphModel dx="1428" dy="823" grid="1" gridSize="10" guides="1" tooltips="1" connect="1" arrows="1" fold="1" page="1" pageScale="1" pageWidth="827" pageHeight="1169" math="0" shadow="0">
      <root>
        <mxCell id="kmdzfq1T5gnDZ25aQXCg-0" />
        <mxCell id="kmdzfq1T5gnDZ25aQXCg-1" parent="kmdzfq1T5gnDZ25aQXCg-0" />
        <mxCell id="kmdzfq1T5gnDZ25aQXCg-3" value="" style="rounded=0;whiteSpace=wrap;html=1;" parent="kmdzfq1T5gnDZ25aQXCg-1" vertex="1">
          <mxGeometry x="120" y="640" width="260" height="310" as="geometry" />
        </mxCell>
        <mxCell id="kmdzfq1T5gnDZ25aQXCg-6" value="" style="rounded=0;whiteSpace=wrap;html=1;fillColor=#60a917;fontColor=#ffffff;strokeColor=#2D7600;" parent="kmdzfq1T5gnDZ25aQXCg-1" vertex="1">
          <mxGeometry x="120" y="10" width="600" height="120" as="geometry" />
        </mxCell>
        <mxCell id="kmdzfq1T5gnDZ25aQXCg-7" value="" style="verticalLabelPosition=bottom;shadow=0;dashed=0;align=center;html=1;verticalAlign=top;strokeWidth=1;shape=mxgraph.mockup.graphics.simpleIcon;strokeColor=#999999;" parent="kmdzfq1T5gnDZ25aQXCg-1" vertex="1">
          <mxGeometry x="140" y="30" width="80" height="80" as="geometry" />
        </mxCell>
        <mxCell id="kmdzfq1T5gnDZ25aQXCg-8" value="" style="swimlane;shape=mxgraph.bootstrap.anchor;strokeColor=#999999;fillColor=#ffffff;fontColor=#666666;childLayout=stackLayout;horizontal=0;startSize=0;horizontalStack=1;resizeParent=1;resizeParentMax=0;resizeLast=0;collapsible=0;marginBottom=0;whiteSpace=wrap;html=1;" parent="kmdzfq1T5gnDZ25aQXCg-1" vertex="1">
          <mxGeometry x="280" y="60" width="340" height="20" as="geometry" />
        </mxCell>
        <mxCell id="kmdzfq1T5gnDZ25aQXCg-9" value="Home" style="text;strokeColor=inherit;align=center;verticalAlign=middle;spacingLeft=10;spacingRight=10;overflow=hidden;points=[[0,0.5],[1,0.5]];portConstraint=eastwest;rotatable=0;whiteSpace=wrap;html=1;fillColor=inherit;fontColor=inherit;fontSize=17;" parent="kmdzfq1T5gnDZ25aQXCg-8" vertex="1">
          <mxGeometry width="70" height="20" as="geometry" />
        </mxCell>
        <mxCell id="kmdzfq1T5gnDZ25aQXCg-10" value="About Us" style="text;strokeColor=inherit;align=center;verticalAlign=middle;spacingLeft=10;spacingRight=10;overflow=hidden;points=[[0,0.5],[1,0.5]];portConstraint=eastwest;rotatable=0;whiteSpace=wrap;html=1;fillColor=inherit;fontColor=inherit;fontSize=17;" parent="kmdzfq1T5gnDZ25aQXCg-8" vertex="1">
          <mxGeometry x="70" width="90" height="20" as="geometry" />
        </mxCell>
        <mxCell id="kmdzfq1T5gnDZ25aQXCg-11" value="Trips" style="text;strokeColor=inherit;align=center;verticalAlign=middle;spacingLeft=10;spacingRight=10;overflow=hidden;points=[[0,0.5],[1,0.5]];portConstraint=eastwest;rotatable=0;whiteSpace=wrap;html=1;fillColor=inherit;fontColor=inherit;fontSize=17;" parent="kmdzfq1T5gnDZ25aQXCg-8" vertex="1">
          <mxGeometry x="160" width="90" height="20" as="geometry" />
        </mxCell>
        <mxCell id="kmdzfq1T5gnDZ25aQXCg-12" value="&lt;font style=&quot;font-size: 13px;&quot;&gt;Contact Us&lt;/font&gt;" style="text;strokeColor=inherit;align=center;verticalAlign=middle;spacingLeft=10;spacingRight=10;overflow=hidden;points=[[0,0.5],[1,0.5]];portConstraint=eastwest;rotatable=0;whiteSpace=wrap;html=1;fillColor=inherit;fontColor=inherit;fontSize=17;" parent="kmdzfq1T5gnDZ25aQXCg-8" vertex="1">
          <mxGeometry x="250" width="90" height="20" as="geometry" />
        </mxCell>
        <mxCell id="kmdzfq1T5gnDZ25aQXCg-13" value="" style="rounded=0;whiteSpace=wrap;html=1;fillColor=#60a917;fontColor=#ffffff;strokeColor=#2D7600;" parent="kmdzfq1T5gnDZ25aQXCg-1" vertex="1">
          <mxGeometry x="9" y="1654" width="810" height="100" as="geometry" />
        </mxCell>
        <mxCell id="kmdzfq1T5gnDZ25aQXCg-14" value="" style="verticalLabelPosition=bottom;shadow=0;dashed=0;align=center;html=1;verticalAlign=top;strokeWidth=1;shape=mxgraph.mockup.graphics.simpleIcon;strokeColor=#999999;" parent="kmdzfq1T5gnDZ25aQXCg-1" vertex="1">
          <mxGeometry x="629" y="1679" width="50" height="50" as="geometry" />
        </mxCell>
        <mxCell id="kmdzfq1T5gnDZ25aQXCg-15" value="" style="verticalLabelPosition=bottom;shadow=0;dashed=0;align=center;html=1;verticalAlign=top;strokeWidth=1;shape=mxgraph.mockup.graphics.simpleIcon;strokeColor=#999999;" parent="kmdzfq1T5gnDZ25aQXCg-1" vertex="1">
          <mxGeometry x="689" y="1679" width="50" height="50" as="geometry" />
        </mxCell>
        <mxCell id="kmdzfq1T5gnDZ25aQXCg-16" value="" style="verticalLabelPosition=bottom;shadow=0;dashed=0;align=center;html=1;verticalAlign=top;strokeWidth=1;shape=mxgraph.mockup.graphics.simpleIcon;strokeColor=#999999;" parent="kmdzfq1T5gnDZ25aQXCg-1" vertex="1">
          <mxGeometry x="749" y="1679" width="50" height="50" as="geometry" />
        </mxCell>
        <mxCell id="kmdzfq1T5gnDZ25aQXCg-17" value="Footer content" style="text;html=1;align=center;verticalAlign=middle;whiteSpace=wrap;rounded=0;fontSize=18;" parent="kmdzfq1T5gnDZ25aQXCg-1" vertex="1">
          <mxGeometry x="49" y="1689" width="550" height="30" as="geometry" />
        </mxCell>
        <mxCell id="kmdzfq1T5gnDZ25aQXCg-18" value="" style="verticalLabelPosition=bottom;shadow=0;dashed=0;align=center;html=1;verticalAlign=top;strokeWidth=1;shape=mxgraph.mockup.graphics.simpleIcon;strokeColor=#999999;" parent="kmdzfq1T5gnDZ25aQXCg-1" vertex="1">
          <mxGeometry y="150" width="820" height="250" as="geometry" />
        </mxCell>
        <mxCell id="kmdzfq1T5gnDZ25aQXCg-19" value="Hero image" style="text;html=1;align=center;verticalAlign=middle;whiteSpace=wrap;rounded=0;fontSize=28;" parent="kmdzfq1T5gnDZ25aQXCg-1" vertex="1">
          <mxGeometry x="250" y="250" width="330" height="50" as="geometry" />
        </mxCell>
        <mxCell id="kmdzfq1T5gnDZ25aQXCg-20" value="Whitewater Rafting&lt;div&gt;Make your own track!&amp;nbsp;&lt;/div&gt;" style="text;html=1;align=center;verticalAlign=middle;whiteSpace=wrap;rounded=0;fontSize=28;" parent="kmdzfq1T5gnDZ25aQXCg-1" vertex="1">
          <mxGeometry x="200" y="410" width="440" height="140" as="geometry" />
        </mxCell>
        <mxCell id="kmdzfq1T5gnDZ25aQXCg-23" value="Plan your trip!" style="rounded=1;fillColor=#0057D8;strokeColor=none;html=1;whiteSpace=wrap;fontColor=#ffffff;align=center;verticalAlign=middle;fontStyle=0;fontSize=14;sketch=0;" parent="kmdzfq1T5gnDZ25aQXCg-1" vertex="1">
          <mxGeometry x="377" y="1590" width="86" height="33" as="geometry" />
        </mxCell>
        <mxCell id="kmdzfq1T5gnDZ25aQXCg-24" value="" style="verticalLabelPosition=bottom;shadow=0;dashed=0;align=center;html=1;verticalAlign=top;strokeWidth=1;shape=mxgraph.mockup.graphics.simpleIcon;strokeColor=#999999;" parent="kmdzfq1T5gnDZ25aQXCg-1" vertex="1">
          <mxGeometry x="135" y="660" width="230" height="180" as="geometry" />
        </mxCell>
        <mxCell id="kmdzfq1T5gnDZ25aQXCg-25" value="Our goal is to create authentic, personalized, and unforgettable travel experiences. Every trip we plan is crafted with care, passion, and that unique touch only a dedicated team can offer. We might not be the biggest, but we go all in to make sure you get way more than just a tour — you get a real adventure." style="text;html=1;align=center;verticalAlign=middle;whiteSpace=wrap;rounded=0;fontSize=12;" parent="kmdzfq1T5gnDZ25aQXCg-1" vertex="1">
          <mxGeometry x="140" y="540" width="560" height="70" as="geometry" />
        </mxCell>
        <mxCell id="kmdzfq1T5gnDZ25aQXCg-27" value="Marañon River img" style="text;html=1;align=center;verticalAlign=middle;whiteSpace=wrap;rounded=0;fontSize=28;" parent="kmdzfq1T5gnDZ25aQXCg-1" vertex="1">
          <mxGeometry x="155" y="700" width="190" height="90" as="geometry" />
        </mxCell>
        <mxCell id="kmdzfq1T5gnDZ25aQXCg-29" value="Experience the thrill of riding one of the Amazon’s most powerful rivers. Rapids, epic views, and an unforgettable journey await.&lt;br data-start=&quot;507&quot; data-end=&quot;510&quot;&gt;&lt;div&gt;&lt;br&gt;&lt;/div&gt;" style="text;html=1;align=left;verticalAlign=middle;whiteSpace=wrap;rounded=0;fontSize=14;" parent="kmdzfq1T5gnDZ25aQXCg-1" vertex="1">
          <mxGeometry x="120" y="850" width="260" height="110" as="geometry" />
        </mxCell>
        <mxCell id="gaoJbcEdcGMxBKzYYA9b-2" value="" style="endArrow=none;html=1;rounded=0;" parent="kmdzfq1T5gnDZ25aQXCg-1" edge="1">
          <mxGeometry width="50" height="50" relative="1" as="geometry">
            <mxPoint x="120" y="530" as="sourcePoint" />
            <mxPoint x="720" y="530" as="targetPoint" />
          </mxGeometry>
        </mxCell>
        <mxCell id="gaoJbcEdcGMxBKzYYA9b-7" value="" style="rounded=0;whiteSpace=wrap;html=1;" parent="kmdzfq1T5gnDZ25aQXCg-1" vertex="1">
          <mxGeometry x="120" y="1000" width="260" height="310" as="geometry" />
        </mxCell>
        <mxCell id="gaoJbcEdcGMxBKzYYA9b-8" value="" style="verticalLabelPosition=bottom;shadow=0;dashed=0;align=center;html=1;verticalAlign=top;strokeWidth=1;shape=mxgraph.mockup.graphics.simpleIcon;strokeColor=#999999;" parent="kmdzfq1T5gnDZ25aQXCg-1" vertex="1">
          <mxGeometry x="140" y="1020" width="220" height="180" as="geometry" />
        </mxCell>
        <mxCell id="gaoJbcEdcGMxBKzYYA9b-9" value="Urubamba River img" style="text;html=1;align=center;verticalAlign=middle;whiteSpace=wrap;rounded=0;fontSize=28;" parent="kmdzfq1T5gnDZ25aQXCg-1" vertex="1">
          <mxGeometry x="160" y="1060" width="180" height="90" as="geometry" />
        </mxCell>
        <mxCell id="gaoJbcEdcGMxBKzYYA9b-10" value="&lt;div&gt;Sail through the sacred waters of the Sacred Valley, surrounded by breathtaking landscapes. Perfect for connecting with nature and Andean culture.&lt;/div&gt;" style="text;html=1;align=left;verticalAlign=middle;whiteSpace=wrap;rounded=0;fontSize=14;" parent="kmdzfq1T5gnDZ25aQXCg-1" vertex="1">
          <mxGeometry x="120" y="1210" width="260" height="110" as="geometry" />
        </mxCell>
        <mxCell id="gaoJbcEdcGMxBKzYYA9b-16" value="" style="rounded=0;whiteSpace=wrap;html=1;" parent="kmdzfq1T5gnDZ25aQXCg-1" vertex="1">
          <mxGeometry x="459" y="640" width="261" height="310" as="geometry" />
        </mxCell>
        <mxCell id="gaoJbcEdcGMxBKzYYA9b-17" value="" style="verticalLabelPosition=bottom;shadow=0;dashed=0;align=center;html=1;verticalAlign=top;strokeWidth=1;shape=mxgraph.mockup.graphics.simpleIcon;strokeColor=#999999;" parent="kmdzfq1T5gnDZ25aQXCg-1" vertex="1">
          <mxGeometry x="479" y="660" width="221" height="180" as="geometry" />
        </mxCell>
        <mxCell id="gaoJbcEdcGMxBKzYYA9b-18" value="Cañete River img" style="text;html=1;align=center;verticalAlign=middle;whiteSpace=wrap;rounded=0;fontSize=28;" parent="kmdzfq1T5gnDZ25aQXCg-1" vertex="1">
          <mxGeometry x="499" y="700" width="181" height="90" as="geometry" />
        </mxCell>
        <mxCell id="gaoJbcEdcGMxBKzYYA9b-19" value="&lt;p data-pm-slice=&quot;1 1 []&quot;&gt;The Cañete River, located near Lima, offers thrilling whitewater adventures. Its crystal-clear waters and stunning Andean scenery cater to both beginners and experienced thrill-seekers.&lt;/p&gt;" style="text;html=1;align=left;verticalAlign=middle;whiteSpace=wrap;rounded=0;fontSize=14;" parent="kmdzfq1T5gnDZ25aQXCg-1" vertex="1">
          <mxGeometry x="459" y="840" width="261" height="110" as="geometry" />
        </mxCell>
        <mxCell id="gaoJbcEdcGMxBKzYYA9b-20" value="" style="rounded=0;whiteSpace=wrap;html=1;" parent="kmdzfq1T5gnDZ25aQXCg-1" vertex="1">
          <mxGeometry x="459" y="1000" width="261" height="310" as="geometry" />
        </mxCell>
        <mxCell id="gaoJbcEdcGMxBKzYYA9b-21" value="" style="verticalLabelPosition=bottom;shadow=0;dashed=0;align=center;html=1;verticalAlign=top;strokeWidth=1;shape=mxgraph.mockup.graphics.simpleIcon;strokeColor=#999999;" parent="kmdzfq1T5gnDZ25aQXCg-1" vertex="1">
          <mxGeometry x="479" y="1020" width="221" height="180" as="geometry" />
        </mxCell>
        <mxCell id="gaoJbcEdcGMxBKzYYA9b-22" value="Apurimac River img" style="text;html=1;align=center;verticalAlign=middle;whiteSpace=wrap;rounded=0;fontSize=28;" parent="kmdzfq1T5gnDZ25aQXCg-1" vertex="1">
          <mxGeometry x="499" y="1060" width="181" height="90" as="geometry" />
        </mxCell>
        <mxCell id="gaoJbcEdcGMxBKzYYA9b-23" value="&lt;p data-pm-slice=&quot;1 1 []&quot;&gt;The Apurímac River offers exhilarating rafting experiences with intense rapids, stunning gorges, and beautiful scenery, making it a top choice for adventure enthusiasts.&lt;/p&gt;" style="text;html=1;align=left;verticalAlign=middle;whiteSpace=wrap;rounded=0;fontSize=14;" parent="kmdzfq1T5gnDZ25aQXCg-1" vertex="1">
          <mxGeometry x="459" y="1210" width="261" height="110" as="geometry" />
        </mxCell>
        <mxCell id="wdNuONswxgEKK36omOnS-0" value="" style="endArrow=none;html=1;rounded=0;" parent="kmdzfq1T5gnDZ25aQXCg-1" edge="1">
          <mxGeometry width="50" height="50" relative="1" as="geometry">
            <mxPoint x="120" y="1330" as="sourcePoint" />
            <mxPoint x="720" y="1330" as="targetPoint" />
          </mxGeometry>
        </mxCell>
        <mxCell id="wdNuONswxgEKK36omOnS-1" value="Our top experiences" style="text;html=1;align=center;verticalAlign=middle;whiteSpace=wrap;rounded=0;fontSize=28;" parent="kmdzfq1T5gnDZ25aQXCg-1" vertex="1">
          <mxGeometry x="200" y="1350" width="440" height="60" as="geometry" />
        </mxCell>
        <mxCell id="wdNuONswxgEKK36omOnS-15" value="Assets" style="childLayout=tableLayout;recursiveResize=0;strokeColor=#98bf21;fillColor=#A7C942;shadow=1;" parent="kmdzfq1T5gnDZ25aQXCg-1" vertex="1">
          <mxGeometry x="160" y="1410" width="520" height="157" as="geometry" />
        </mxCell>
        <mxCell id="wdNuONswxgEKK36omOnS-16" style="shape=tableRow;horizontal=0;startSize=0;swimlaneHead=0;swimlaneBody=0;top=0;left=0;bottom=0;right=0;dropTarget=0;collapsible=0;recursiveResize=0;expand=0;fontStyle=0;strokeColor=inherit;fillColor=#ffffff;" parent="wdNuONswxgEKK36omOnS-15" vertex="1">
          <mxGeometry width="520" height="30" as="geometry" />
        </mxCell>
        <mxCell id="wdNuONswxgEKK36omOnS-17" value="Trips" style="connectable=0;recursiveResize=0;strokeColor=inherit;fillColor=#A7C942;align=center;fontStyle=1;fontColor=#FFFFFF;html=1;" parent="wdNuONswxgEKK36omOnS-16" vertex="1">
          <mxGeometry width="173" height="30" as="geometry">
            <mxRectangle width="173" height="30" as="alternateBounds" />
          </mxGeometry>
        </mxCell>
        <mxCell id="wdNuONswxgEKK36omOnS-18" value="Duration" style="connectable=0;recursiveResize=0;strokeColor=inherit;fillColor=#A7C942;align=center;fontStyle=1;fontColor=#FFFFFF;html=1;" parent="wdNuONswxgEKK36omOnS-16" vertex="1">
          <mxGeometry x="173" width="174" height="30" as="geometry">
            <mxRectangle width="174" height="30" as="alternateBounds" />
          </mxGeometry>
        </mxCell>
        <mxCell id="wdNuONswxgEKK36omOnS-19" value="Season" style="connectable=0;recursiveResize=0;strokeColor=inherit;fillColor=#A7C942;align=center;fontStyle=1;fontColor=#FFFFFF;html=1;" parent="wdNuONswxgEKK36omOnS-16" vertex="1">
          <mxGeometry x="347" width="173" height="30" as="geometry">
            <mxRectangle width="173" height="30" as="alternateBounds" />
          </mxGeometry>
        </mxCell>
        <mxCell id="wdNuONswxgEKK36omOnS-20" value="" style="shape=tableRow;horizontal=0;startSize=0;swimlaneHead=0;swimlaneBody=0;top=0;left=0;bottom=0;right=0;dropTarget=0;collapsible=0;recursiveResize=0;expand=0;fontStyle=0;strokeColor=inherit;fillColor=#ffffff;" parent="wdNuONswxgEKK36omOnS-15" vertex="1">
          <mxGeometry y="30" width="520" height="32" as="geometry" />
        </mxCell>
        <mxCell id="wdNuONswxgEKK36omOnS-21" value="Value 1" style="connectable=0;recursiveResize=0;strokeColor=inherit;fillColor=inherit;align=center;whiteSpace=wrap;html=1;" parent="wdNuONswxgEKK36omOnS-20" vertex="1">
          <mxGeometry width="173" height="32" as="geometry">
            <mxRectangle width="173" height="32" as="alternateBounds" />
          </mxGeometry>
        </mxCell>
        <mxCell id="wdNuONswxgEKK36omOnS-22" value="Value 2" style="connectable=0;recursiveResize=0;strokeColor=inherit;fillColor=inherit;align=center;whiteSpace=wrap;html=1;" parent="wdNuONswxgEKK36omOnS-20" vertex="1">
          <mxGeometry x="173" width="174" height="32" as="geometry">
            <mxRectangle width="174" height="32" as="alternateBounds" />
          </mxGeometry>
        </mxCell>
        <mxCell id="wdNuONswxgEKK36omOnS-23" value="Value 3" style="connectable=0;recursiveResize=0;strokeColor=inherit;fillColor=inherit;align=center;whiteSpace=wrap;html=1;" parent="wdNuONswxgEKK36omOnS-20" vertex="1">
          <mxGeometry x="347" width="173" height="32" as="geometry">
            <mxRectangle width="173" height="32" as="alternateBounds" />
          </mxGeometry>
        </mxCell>
        <mxCell id="wdNuONswxgEKK36omOnS-24" value="" style="shape=tableRow;horizontal=0;startSize=0;swimlaneHead=0;swimlaneBody=0;top=0;left=0;bottom=0;right=0;dropTarget=0;collapsible=0;recursiveResize=0;expand=0;fontStyle=1;strokeColor=inherit;fillColor=#EAF2D3;" parent="wdNuONswxgEKK36omOnS-15" vertex="1">
          <mxGeometry y="62" width="520" height="31" as="geometry" />
        </mxCell>
        <mxCell id="wdNuONswxgEKK36omOnS-25" value="Value 4" style="connectable=0;recursiveResize=0;strokeColor=inherit;fillColor=inherit;whiteSpace=wrap;html=1;" parent="wdNuONswxgEKK36omOnS-24" vertex="1">
          <mxGeometry width="173" height="31" as="geometry">
            <mxRectangle width="173" height="31" as="alternateBounds" />
          </mxGeometry>
        </mxCell>
        <mxCell id="wdNuONswxgEKK36omOnS-26" value="Value 5" style="connectable=0;recursiveResize=0;strokeColor=inherit;fillColor=inherit;whiteSpace=wrap;html=1;" parent="wdNuONswxgEKK36omOnS-24" vertex="1">
          <mxGeometry x="173" width="174" height="31" as="geometry">
            <mxRectangle width="174" height="31" as="alternateBounds" />
          </mxGeometry>
        </mxCell>
        <mxCell id="wdNuONswxgEKK36omOnS-27" value="Value 6" style="connectable=0;recursiveResize=0;strokeColor=inherit;fillColor=inherit;whiteSpace=wrap;html=1;" parent="wdNuONswxgEKK36omOnS-24" vertex="1">
          <mxGeometry x="347" width="173" height="31" as="geometry">
            <mxRectangle width="173" height="31" as="alternateBounds" />
          </mxGeometry>
        </mxCell>
        <mxCell id="wdNuONswxgEKK36omOnS-28" value="" style="shape=tableRow;horizontal=0;startSize=0;swimlaneHead=0;swimlaneBody=0;top=0;left=0;bottom=0;right=0;dropTarget=0;collapsible=0;recursiveResize=0;expand=0;fontStyle=0;strokeColor=inherit;fillColor=#ffffff;" parent="wdNuONswxgEKK36omOnS-15" vertex="1">
          <mxGeometry y="93" width="520" height="33" as="geometry" />
        </mxCell>
        <mxCell id="wdNuONswxgEKK36omOnS-29" value="Value 7" style="connectable=0;recursiveResize=0;strokeColor=inherit;fillColor=inherit;fontStyle=0;align=center;whiteSpace=wrap;html=1;" parent="wdNuONswxgEKK36omOnS-28" vertex="1">
          <mxGeometry width="173" height="33" as="geometry">
            <mxRectangle width="173" height="33" as="alternateBounds" />
          </mxGeometry>
        </mxCell>
        <mxCell id="wdNuONswxgEKK36omOnS-30" value="Value 8" style="connectable=0;recursiveResize=0;strokeColor=inherit;fillColor=inherit;fontStyle=0;align=center;whiteSpace=wrap;html=1;" parent="wdNuONswxgEKK36omOnS-28" vertex="1">
          <mxGeometry x="173" width="174" height="33" as="geometry">
            <mxRectangle width="174" height="33" as="alternateBounds" />
          </mxGeometry>
        </mxCell>
        <mxCell id="wdNuONswxgEKK36omOnS-31" value="Value 9" style="connectable=0;recursiveResize=0;strokeColor=inherit;fillColor=inherit;fontStyle=0;align=center;whiteSpace=wrap;html=1;" parent="wdNuONswxgEKK36omOnS-28" vertex="1">
          <mxGeometry x="347" width="173" height="33" as="geometry">
            <mxRectangle width="173" height="33" as="alternateBounds" />
          </mxGeometry>
        </mxCell>
        <mxCell id="wdNuONswxgEKK36omOnS-32" value="" style="shape=tableRow;horizontal=0;startSize=0;swimlaneHead=0;swimlaneBody=0;top=0;left=0;bottom=0;right=0;dropTarget=0;collapsible=0;recursiveResize=0;expand=0;fontStyle=1;strokeColor=inherit;fillColor=#EAF2D3;" parent="wdNuONswxgEKK36omOnS-15" vertex="1">
          <mxGeometry y="126" width="520" height="31" as="geometry" />
        </mxCell>
        <mxCell id="wdNuONswxgEKK36omOnS-33" value="Value 10" style="connectable=0;recursiveResize=0;strokeColor=inherit;fillColor=inherit;whiteSpace=wrap;html=1;" parent="wdNuONswxgEKK36omOnS-32" vertex="1">
          <mxGeometry width="173" height="31" as="geometry">
            <mxRectangle width="173" height="31" as="alternateBounds" />
          </mxGeometry>
        </mxCell>
        <mxCell id="wdNuONswxgEKK36omOnS-34" value="Value 11" style="connectable=0;recursiveResize=0;strokeColor=inherit;fillColor=inherit;whiteSpace=wrap;html=1;" parent="wdNuONswxgEKK36omOnS-32" vertex="1">
          <mxGeometry x="173" width="174" height="31" as="geometry">
            <mxRectangle width="174" height="31" as="alternateBounds" />
          </mxGeometry>
        </mxCell>
        <mxCell id="wdNuONswxgEKK36omOnS-35" value="Value 12" style="connectable=0;recursiveResize=0;strokeColor=inherit;fillColor=inherit;whiteSpace=wrap;html=1;" parent="wdNuONswxgEKK36omOnS-32" vertex="1">
          <mxGeometry x="347" width="173" height="31" as="geometry">
            <mxRectangle width="173" height="31" as="alternateBounds" />
          </mxGeometry>
        </mxCell>
      </root>
    </mxGraphModel>
  </diagram>
</mxfile>
